<svg xmlns="http://www.w3.org/2000/svg" viewBox="-34 -28 68 64">
  <g fill="none" stroke="#818cf8" stroke-width="4.5" stroke-linecap="round" stroke-linejoin="round">
    <g transform="translate(0,-12) rotate(180)"><polyline points="-16,0 -8,14 0,0 8,14 16,0"/></g>
    <g transform="translate(-21,1) rotate(90)"><polyline points="-16,0 -8,14 0,0 8,14 16,0"/></g>
    <g transform="translate(21,1) rotate(-90)"><polyline points="-16,0 -8,14 0,0 8,14 16,0"/></g>
    <g transform="translate(0,12)"><polyline points="-16,0 -8,14 0,0 8,14 16,0"/></g>
    <g transform="translate(0,23)"><polyline points="-16,0 -8,14 0,0 8,14 16,0"/></g>
  </g>
  <line x1="-8" y1="-4" x2="-8" y2="5" stroke="#db2777" stroke-width="3.5" stroke-linecap="round"/>
  <line x1="8" y1="-4" x2="8" y2="5" stroke="#db2777" stroke-width="3.5" stroke-linecap="round"/>
</svg>
