<svg viewBox="0 0 100 100" width="120" height="120" fill="none" stroke="#818cf8" stroke-width="4" stroke-linecap="round" stroke-linejoin="round" xmlns="http://www.w3.org/2000/svg">
  <g>
    <g transform="translate(50,44) rotate(180)"><polyline points="-16,0 -8,14 0,0 8,14 16,0"/></g>
    <g transform="translate(29,57) rotate(90)"><polyline points="-16,0 -8,14 0,0 8,14 16,0"/></g>
    <g transform="translate(71,57) rotate(-90)"><polyline points="-16,0 -8,14 0,0 8,14 16,0"/></g>
    <g transform="translate(50,68)"><polyline points="-16,0 -8,14 0,0 8,14 16,0"/></g>
    <g transform="translate(50,79)"><polyline points="-16,0 -8,14 0,0 8,14 16,0"/></g>
  </g>
  <line x1="42" y1="52" x2="42" y2="60" stroke="#f472b6" stroke-width="2.5"/>
  <line x1="58" y1="52" x2="58" y2="60" stroke="#f472b6" stroke-width="2.5"/>
</svg>
